<mxfile host="65bd71144e">
    <diagram id="4vYN8i6CIZI3yDAlgatI" name="Page-1">
        <mxGraphModel dx="1198" dy="749" grid="1" gridSize="10" guides="1" tooltips="1" connect="1" arrows="1" fold="1" page="1" pageScale="1" pageWidth="850" pageHeight="1100" math="0" shadow="0">
            <root>
                <mxCell id="0"/>
                <mxCell id="1" parent="0"/>
                <mxCell id="2" value="" style="shape=image;verticalLabelPosition=bottom;labelBackgroundColor=#ffffff;verticalAlign=top;aspect=fixed;imageAspect=0;image=https://refactoring.guru/images/patterns/diagrams/builder/structure.png;" parent="1" vertex="1">
                    <mxGeometry x="30" y="100" width="412" height="520" as="geometry"/>
                </mxCell>
                <mxCell id="3" value="" style="shape=image;verticalLabelPosition=bottom;labelBackgroundColor=#ffffff;verticalAlign=top;aspect=fixed;imageAspect=0;image=https://refactoring.guru/images/patterns/diagrams/builder/example-en.png;" vertex="1" parent="1">
                    <mxGeometry x="30" y="690" width="441" height="520" as="geometry"/>
                </mxCell>
            </root>
        </mxGraphModel>
    </diagram>
</mxfile>